<svg xmlns="http://www.w3.org/2000/svg" xmlns:xlink="http://www.w3.org/1999/xlink" viewBox="0 0 2064.15 387.47"><defs><style>.cls-1{fill:url(#linear-gradient);}.cls-2{fill:url(#linear-gradient-2);}.cls-3{fill:url(#linear-gradient-3);}.cls-4{fill:url(#linear-gradient-4);}.cls-5{fill:url(#linear-gradient-5);}.cls-6{fill:url(#linear-gradient-6);}.cls-7{fill:url(#linear-gradient-7);}.cls-8{fill:url(#linear-gradient-8);}.cls-9{fill:url(#Degradado_sin_nombre_142);}.cls-10{mask:url(#mask);}.cls-11{fill:url(#Degradado_sin_nombre_11);}.cls-12{mask:url(#mask-2);}.cls-13{mask:url(#mask-3);}.cls-14{fill:#00001f;}.cls-15{fill:url(#Degradado_sin_nombre_11-2);}.cls-16{mask:url(#mask-4);}.cls-17{fill:#0cc1ff;}.cls-18{mask:url(#mask-5);}.cls-19{fill:#002324;}.cls-20,.cls-22,.cls-24,.cls-25,.cls-27{fill-rule:evenodd;}.cls-20{fill:url(#Degradado_sin_nombre_136);}.cls-21{mask:url(#mask-6);}.cls-22,.cls-31{fill:#31e6ff;}.cls-23{mask:url(#mask-7);}.cls-25{fill:url(#Degradado_sin_nombre_11-3);}.cls-26{mask:url(#mask-8);}.cls-27{fill:#4efffe;}.cls-28{fill:url(#linear-gradient-9);}.cls-29{fill:url(#Degradado_sin_nombre_11-4);}.cls-30{fill:url(#Degradado_sin_nombre_6);}.cls-32{fill:#fff;}.cls-33{fill:url(#Degradado_sin_nombre_6-2);}</style><linearGradient id="linear-gradient" x1="79549.27" y1="-4843.81" x2="73973.16" y2="-7922.88" gradientTransform="matrix(0.07, 0, 0, -0.07, -4592.31, -226.42)" gradientUnits="userSpaceOnUse"><stop offset="0" stop-color="#fff"/><stop offset="1" stop-color="#fff" stop-opacity="0"/></linearGradient><linearGradient id="linear-gradient-2" x1="73440.77" y1="-6119.07" x2="74115" y2="-9542.72" xlink:href="#linear-gradient"/><linearGradient id="linear-gradient-3" x1="79148.75" y1="-3626.58" x2="69798.61" y2="-9144.17" xlink:href="#linear-gradient"/><linearGradient id="linear-gradient-4" x1="74587.33" y1="-5567.29" x2="73550.09" y2="-8487.06" xlink:href="#linear-gradient"/><linearGradient id="linear-gradient-5" x1="76173.88" y1="-4858.14" x2="71086.41" y2="-8355.01" xlink:href="#linear-gradient"/><linearGradient id="linear-gradient-6" x1="78032.3" y1="-2096.61" x2="72456.19" y2="-5175.68" xlink:href="#linear-gradient"/><linearGradient id="linear-gradient-7" x1="74557.95" y1="-7096.92" x2="71949.4" y2="-3356.28" xlink:href="#linear-gradient"/><linearGradient id="linear-gradient-8" x1="74573.59" y1="-5839.54" x2="71840.16" y2="-4170.19" xlink:href="#linear-gradient"/><linearGradient id="Degradado_sin_nombre_142" x1="73753.92" y1="-7541.48" x2="76617.14" y2="-6061.71" gradientTransform="matrix(0.07, 0, 0, -0.07, -4592.31, -226.42)" gradientUnits="userSpaceOnUse"><stop offset="0" stop-color="#0061b2"/><stop offset="1" stop-color="#31e6ff"/></linearGradient><mask id="mask" x="744.85" y="187.82" width="182.64" height="199.33" maskUnits="userSpaceOnUse"><g id="id0"><rect class="cls-1" x="744.85" y="187.82" width="182.64" height="199.33"/></g></mask><linearGradient id="Degradado_sin_nombre_11" x1="744.85" y1="287.48" x2="927.49" y2="287.48" gradientUnits="userSpaceOnUse"><stop offset="0" stop-color="#002a2f"/><stop offset="1" stop-color="#006dcf"/></linearGradient><mask id="mask-2" x="603.47" y="232.79" width="221.7" height="154.67" maskUnits="userSpaceOnUse"><g id="id2"><rect class="cls-2" x="603.47" y="232.79" width="221.7" height="154.67"/></g></mask><mask id="mask-3" x="566.45" y="187.82" width="361.04" height="117.97" maskUnits="userSpaceOnUse"><g id="id4"><rect class="cls-3" x="566.45" y="187.82" width="361.04" height="117.97"/></g></mask><linearGradient id="Degradado_sin_nombre_11-2" x1="72435.7" y1="-8190.96" x2="74234.88" y2="-7297.18" gradientTransform="matrix(0.07, 0, 0, -0.07, -4592.31, -226.42)" xlink:href="#Degradado_sin_nombre_11"/><mask id="mask-4" x="662.24" y="232.79" width="135.05" height="154.67" maskUnits="userSpaceOnUse"><g id="id6"><rect class="cls-4" x="662.24" y="232.79" width="135.05" height="154.67"/></g></mask><mask id="mask-5" x="566.44" y="232.79" width="226.94" height="73" maskUnits="userSpaceOnUse"><g id="id8"><rect class="cls-5" x="566.45" y="232.79" width="226.93" height="73"/></g></mask><linearGradient id="Degradado_sin_nombre_136" x1="72615.57" y1="-4901.25" x2="75478.78" y2="-4104.52" gradientTransform="matrix(0.07, 0, 0, -0.07, -4592.31, -226.42)" gradientUnits="userSpaceOnUse"><stop offset="0" stop-color="#0065bb"/><stop offset="1" stop-color="#00a092"/></linearGradient><mask id="mask-6" x="543.88" y="0" width="377.29" height="173.2" maskUnits="userSpaceOnUse"><g id="id10"><rect class="cls-6" x="543.88" width="377.29" height="173.2"/></g></mask><mask id="mask-7" x="541.3" y="18.72" width="230.76" height="189.88" maskUnits="userSpaceOnUse"><g id="id12"><rect class="cls-7" x="541.3" y="18.72" width="230.76" height="189.88"/></g></mask><linearGradient id="Degradado_sin_nombre_11-3" x1="71118.34" y1="-6277.93" x2="72781.28" y2="-5187.01" gradientTransform="matrix(0.07, 0, 0, -0.07, -4592.31, -226.42)" xlink:href="#Degradado_sin_nombre_11"/><mask id="mask-8" x="543.28" y="35.77" width="227.59" height="170.04" maskUnits="userSpaceOnUse"><g id="id14"><rect class="cls-8" x="543.28" y="35.77" width="227.58" height="170.04"/></g></mask><linearGradient id="linear-gradient-9" x1="69574.31" y1="-7574.68" x2="78596.42" y2="-4014.3" gradientTransform="matrix(0.07, 0, 0, -0.07, -4592.31, -226.42)" gradientUnits="userSpaceOnUse"><stop offset="0" stop-color="#007d71"/><stop offset="1" stop-color="#17b1ff"/></linearGradient><linearGradient id="Degradado_sin_nombre_11-4" x1="1003.53" y1="111.68" x2="1087.94" y2="88.19" gradientTransform="translate(737.88 -904.45) rotate(67.5)" xlink:href="#Degradado_sin_nombre_11"/><linearGradient id="Degradado_sin_nombre_6" x1="69573.15" y1="-7571.73" x2="78595.25" y2="-4011.35" gradientTransform="matrix(0.07, 0, 0, -0.07, -4592.31, -226.42)" gradientUnits="userSpaceOnUse"><stop offset="0" stop-color="#fff"/><stop offset="1" stop-color="#006dcf"/></linearGradient><linearGradient id="Degradado_sin_nombre_6-2" x1="0" y1="199.65" x2="2064.15" y2="199.65" gradientTransform="matrix(1, 0, 0, 1, 0, 0)" xlink:href="#Degradado_sin_nombre_6"/></defs><g id="Capa_2" data-name="Capa 2"><g id="Capa_1-2" data-name="Capa 1"><path class="cls-9" d="M927.4,187.82c.05,2,.09,3.93.09,5.91,0,107-86.73,193.74-193.73,193.74a193.63,193.63,0,0,1-167.31-96c48.14-9.86,104.86-23.67,165.77-40.77,72.76-20.42,140.41-42.42,195.17-62.85Z"/><g class="cls-10"><path class="cls-11" d="M927.4,187.82c.05,2,.09,3.93.09,5.91,0,103.27-80.8,187.66-182.64,193.41a163.84,163.84,0,0,0,106.6-153.52,165.71,165.71,0,0,0-1.09-18.87c27.64-9.1,53.52-18.16,77-26.93Z"/></g><g class="cls-12"><path d="M825.17,364.57a193.82,193.82,0,0,1-221.7-27.47c14.83-11.7,25.31-35.7,35.82-62,29.35-7.13,60.55-15.3,92.93-24.39q29.74-8.34,58.17-17a6.63,6.63,0,0,0,3-.91C701.57,287,730.46,338.1,825.17,364.57Z"/></g><g class="cls-13"><path class="cls-14" d="M927.4,187.82c0,1.51.07,3,.09,4.54-62.7,25.81-127.84,48.27-192,68.51-47.33,14.92-95.13,28.77-143.27,40.85q-8.19,2.05-16.45,4.07-5-7-9.28-14.35c48.15-9.86,104.86-23.67,165.78-40.77C805,230.25,872.64,208.25,927.4,187.82Z"/></g><path class="cls-15" d="M797.3,376.79a193.94,193.94,0,0,1-230.85-85.35c48.14-9.85,104.86-23.67,165.77-40.77,20.87-5.86,41.31-11.84,61.16-17.88C665.87,288.87,728.74,348.27,797.3,376.79Z"/><g class="cls-16"><path class="cls-17" d="M797.3,376.79a194.51,194.51,0,0,1-133.4-2.31Q648.69,279.9,773.31,238.82q10.13-3,20.07-6C665.87,288.87,728.74,348.27,797.3,376.79Z"/></g><g class="cls-18"><path class="cls-19" d="M575.57,305.57h0c-.44-.62-.88-1.24-1.31-1.87l-.52-.75,0,0-.17-.24-1-1.5-.86-1.3-.53-.82L569.81,297l-.3-.48c-.47-.76-.94-1.51-1.4-2.28l-.1-.15c-.53-.87-1-1.75-1.57-2.63,48.15-9.85,104.87-23.67,165.78-40.77l1.22-.34,6.09-1.72,7.59-2.16,1.87-.54,8.69-2.5,4.62-1.35,1.29-.38,1.7-.5,9.12-2.69.35-.1,11.11-3.33,1.54-.46,2.94-.89.66-.2,1-.31,1.36-.41c-17.36,7.63-31.16,15.32-41.93,23q-8,2.57-16,5.09c-47.33,14.92-95.14,28.77-143.27,40.85q-8.19,2.05-16.46,4.07l-.15-.22Z"/></g><path class="cls-20" d="M733.76,0a193.65,193.65,0,0,1,168,97.25l.07.11a193.22,193.22,0,0,1,19.32,47.12c-55.39,21.06-125.69,44.1-201.84,65.48-63.26,17.75-121.77,31.89-170.52,41.64A189.6,189.6,0,0,1,544,233h0a196.74,196.74,0,0,1-4-39.25C540,86.74,626.77,0,733.76,0Z"/><g class="cls-21"><path class="cls-22" d="M733.76,0a193.65,193.65,0,0,1,168,97.25l.07.11a193.19,193.19,0,0,1,19.31,47.12c-24.43,9.3-51.77,19-81.23,28.72a163.68,163.68,0,0,0-12-24.16,14.46,14.46,0,0,0-17-23.25,164.72,164.72,0,0,0-22-20.86,40.54,40.54,0,0,0-73.78-32.78,164,164,0,0,0-171.31,83C561.78,66.63,640,0,733.76,0Zm-65,87.86a12.07,12.07,0,1,1-12.07,12.07A12.06,12.06,0,0,1,668.76,87.86Zm149.63,41.52a8.8,8.8,0,1,1-8.79,8.79A8.8,8.8,0,0,1,818.39,129.38ZM750.55,61.45A30.52,30.52,0,1,1,720,92,30.53,30.53,0,0,1,750.55,61.45Z"/></g><g class="cls-23"><path class="cls-24" d="M553.1,123.65a194.48,194.48,0,0,1,95-103.74c-60,95.52,11.62,158.15,122.73,175.07-17.33,1.69-35.07,3.25-53.09,4.68-65,5.12-124.79,7.63-174.17,7.75a193.83,193.83,0,0,1,9.5-83.76Z"/></g><path class="cls-25" d="M770.86,195q-25.18,7.58-51.53,15c-63.25,17.76-121.77,31.89-170.52,41.64Q546,242.47,544,233h0a197.54,197.54,0,0,1-4-39.25,193.5,193.5,0,0,1,81.54-158C563.82,123.5,653.22,200.15,770.87,195Z"/><g class="cls-26"><path class="cls-27" d="M543.28,158.2A193.8,193.8,0,0,1,621.57,35.77C563.82,123.5,653.22,200.15,770.87,195Q611.76,228.54,543.28,158.2Z"/></g><path class="cls-28" d="M1016.49,79c-8.12.37-17.32,1.15-27.48,2.32C965.05,84,935.22,89,901.08,96h0a192.86,192.86,0,0,1,14.37,30.34c29.82-6,56-10.24,77.26-12.69,12.32-1.41,22.87-2.21,31.39-2.34C1008.42,110.32,1008.65,93.61,1016.49,79Z"/><circle class="cls-29" cx="1045.74" cy="99.93" r="43.8" transform="translate(553.23 1027.82) rotate(-67.5)"/><path class="cls-30" d="M949.4,144.38c-58.33,23.47-138.28,50.3-226,74.91C621,248,531.05,267.3,474.81,273.79c-12.32,1.41-22.87,2.21-31.39,2.34,14.51-7.84,40.51-19.3,74.7-33q12.33-5,25.89-10.11a193.15,193.15,0,0,1-3.89-33.32c-12,4.49-23.42,8.89-34.12,13.2-64.29,25.86-105.32,50.66-107.85,68.25v.07a21.34,21.34,0,0,0,0,6.13c1.93,12.76,13.17,19.65,32.26,21.1,11.68.89,28,.1,48.1-2.22,57.74-6.65,149.59-26.29,253.71-55.51,88.73-24.9,169.87-52.15,229.29-76.06,64.29-25.86,105.32-50.66,107.85-68.25v-.06a21.06,21.06,0,0,0,0-6.14,22.27,22.27,0,0,0-1.42-5.1c-19.7,8.86-43.85,16.27-43.85,16.27C1009.58,119.17,983.58,130.63,949.4,144.38Z"/><path class="cls-31" d="M950.72,157c-59.43,23.91-140.57,51.16-229.3,76.06-104.11,29.22-196,48.85-253.71,55.51-20.09,2.32-36.42,3.1-48.1,2.22-9-.68-16.31-2.59-21.67-5.76a19,19,0,0,0,.21,2.26c1.93,12.76,13.17,19.65,32.26,21.1,11.68.89,28,.1,48.1-2.22,57.74-6.65,149.6-26.29,253.71-55.51,88.73-24.9,169.87-52.15,229.3-76.06,64.28-25.86,105.31-50.66,107.84-68.25v-.06a21.06,21.06,0,0,0,0-6.14,22,22,0,0,0-1.42-5.11c-5.6,2.53-11.57,4.93-17.24,7.08C1035.66,118,1000.05,137.16,950.72,157Z"/><path class="cls-32" d="M245.18,273.38q0,25.71-13.29,43.07t-35.78,26.37a131.05,131.05,0,0,1-49.09,9H0V47.49H162.88q21.44,0,37.08,11.36A74.61,74.61,0,0,1,224,88a86.1,86.1,0,0,1,8.36,37.08,83.28,83.28,0,0,1-11.14,41.58A67.67,67.67,0,0,1,188.6,195.8q26.15,7.71,41.36,27.86T245.18,273.38ZM59.15,98.07v76.72H138a35,35,0,0,0,31.08-18q4.92-8.56,4.93-20.58a42.77,42.77,0,0,0-4.5-20.14,34,34,0,0,0-12-13.29,31.22,31.22,0,0,0-16.94-4.71ZM185.6,262.23a45,45,0,0,0-4.71-20.78,38.32,38.32,0,0,0-12.65-14.58A31.79,31.79,0,0,0,150,221.52H59.15v80.15H147a36.82,36.82,0,0,0,19.51-5.36A39.55,39.55,0,0,0,180.46,282,39,39,0,0,0,185.6,262.23Z"/><path class="cls-32" d="M291.47,351.82V47.49h59.16V351.82Z"/><path class="cls-32" d="M1137.45,351.82V47.49H1272a88.1,88.1,0,0,1,38.79,8.57,98.8,98.8,0,0,1,30.86,23.15,107,107,0,0,1,20.15,32.57,100.09,100.09,0,0,1,7.07,36.86,105.07,105.07,0,0,1-6.64,37.08,92.3,92.3,0,0,1-19.08,31.08,87.27,87.27,0,0,1-29.14,20.57l69.44,114.45h-65.16l-62.58-102H1196.6v102Zm59.15-153.88h74.16a31.25,31.25,0,0,0,19.71-6.65,46.73,46.73,0,0,0,13.72-17.79,58.56,58.56,0,0,0,5.14-24.86q0-14.56-6-25.5a50.15,50.15,0,0,0-15.21-17.36,34.17,34.17,0,0,0-19.94-6.43H1196.6Z"/><path class="cls-32" d="M1667.67,273.38q0,25.71-13.29,43.07t-35.79,26.37a131,131,0,0,1-49.08,9h-147V47.49h162.88q21.44,0,37.08,11.36a74.61,74.61,0,0,1,24,29.14,86.24,86.24,0,0,1,8.36,37.08,83.28,83.28,0,0,1-11.14,41.58,67.67,67.67,0,0,1-32.58,29.15q26.15,7.71,41.36,27.86T1667.67,273.38Zm-186-175.31v76.72h78.87a35,35,0,0,0,31.08-18q4.92-8.56,4.93-20.58a42.77,42.77,0,0,0-4.5-20.14,34,34,0,0,0-12-13.29,31.22,31.22,0,0,0-16.94-4.71Zm126.45,164.16a45,45,0,0,0-4.71-20.78,38.32,38.32,0,0,0-12.65-14.58,31.79,31.79,0,0,0-18.22-5.35h-90.87v80.15h87.87a36.82,36.82,0,0,0,19.51-5.36A39.55,39.55,0,0,0,1603,282,39,39,0,0,0,1608.09,262.23Z"/><path class="cls-32" d="M1714,351.82V47.49h59.15V351.82Z"/><path class="cls-32" d="M2064.15,99.35h-97.29V351.82h-58.73V99.35h-97.3V47.49h253.32Z"/><path class="cls-33" d="M245.18,273.38q0,25.71-13.29,43.07t-35.78,26.37a131.05,131.05,0,0,1-49.09,9H0V47.49H162.88q21.44,0,37.08,11.36A74.61,74.61,0,0,1,224,88a86.1,86.1,0,0,1,8.36,37.08,83.28,83.28,0,0,1-11.14,41.58A67.67,67.67,0,0,1,188.6,195.8q26.15,7.71,41.36,27.86T245.18,273.38ZM59.15,98.07v76.72H138a35,35,0,0,0,31.08-18q4.92-8.56,4.93-20.58a42.77,42.77,0,0,0-4.5-20.14,34,34,0,0,0-12-13.29,31.22,31.22,0,0,0-16.94-4.71ZM185.6,262.23a45,45,0,0,0-4.71-20.78,38.32,38.32,0,0,0-12.65-14.58A31.79,31.79,0,0,0,150,221.52H59.15v80.15H147a36.82,36.82,0,0,0,19.51-5.36A39.55,39.55,0,0,0,180.46,282,39,39,0,0,0,185.6,262.23Z"/><path class="cls-33" d="M291.47,351.82V47.49h59.16V351.82Z"/><path class="cls-33" d="M1137.45,351.82V47.49H1272a88.1,88.1,0,0,1,38.79,8.57,98.8,98.8,0,0,1,30.86,23.15,107,107,0,0,1,20.15,32.57,100.09,100.09,0,0,1,7.07,36.86,105.07,105.07,0,0,1-6.64,37.08,92.3,92.3,0,0,1-19.08,31.08,87.27,87.27,0,0,1-29.14,20.57l69.44,114.45h-65.16l-62.58-102H1196.6v102Zm59.15-153.88h74.16a31.25,31.25,0,0,0,19.71-6.65,46.73,46.73,0,0,0,13.72-17.79,58.56,58.56,0,0,0,5.14-24.86q0-14.56-6-25.5a50.15,50.15,0,0,0-15.21-17.36,34.17,34.17,0,0,0-19.94-6.43H1196.6Z"/><path class="cls-33" d="M1667.67,273.38q0,25.71-13.29,43.07t-35.79,26.37a131,131,0,0,1-49.08,9h-147V47.49h162.88q21.44,0,37.08,11.36a74.61,74.61,0,0,1,24,29.14,86.24,86.24,0,0,1,8.36,37.08,83.28,83.28,0,0,1-11.14,41.58,67.67,67.67,0,0,1-32.58,29.15q26.15,7.71,41.36,27.86T1667.67,273.38Zm-186-175.31v76.72h78.87a35,35,0,0,0,31.08-18q4.92-8.56,4.93-20.58a42.77,42.77,0,0,0-4.5-20.14,34,34,0,0,0-12-13.29,31.22,31.22,0,0,0-16.94-4.71Zm126.45,164.16a45,45,0,0,0-4.71-20.78,38.32,38.32,0,0,0-12.65-14.58,31.79,31.79,0,0,0-18.22-5.35h-90.87v80.15h87.87a36.82,36.82,0,0,0,19.51-5.36A39.55,39.55,0,0,0,1603,282,39,39,0,0,0,1608.09,262.23Z"/><path class="cls-33" d="M1714,351.82V47.49h59.15V351.82Z"/><path class="cls-33" d="M2064.15,99.35h-97.29V351.82h-58.73V99.35h-97.3V47.49h253.32Z"/></g></g></svg>